<svg version="1.2" xmlns="http://www.w3.org/2000/svg" viewBox="0 0 64 64" width="64" height="64"><style>.a{fill:#ffbedc}.b{fill:#d17aa3}</style><path class="a" d="m37.6 27c10.8 2.2 20.5 6 19 15.4-0.8 5.1-1.2 13.4-7 20.3q-0.6 0.6-1.4 1-0.7 0.3-1.6 0.3h-26.5c-1.1 0-2.1-0.4-2.9-1.1-0.9-0.9-2.4-2.2-3.9-3.6-4.8-4.4-5.6-10.7-5.2-16.1 0.2-4.3 4.1-7.4 8.3-7.4l-6.9-26.9q-0.3-1.2-0.1-2.4 0.1-1.2 0.7-2.3 0.6-1 1.6-1.8 0.9-0.7 2.1-1c1.5-0.3 3.1-0.1 4.5 0.8 1.4 0.8 2.4 2.2 2.8 3.8l4.9 18.8 2.3-19.8c0.1-1.4 0.8-2.8 1.9-3.7 1.1-1 2.5-1.4 3.9-1.3 1.4 0.2 2.7 0.9 3.7 2 0.9 1.1 1.3 2.6 1.2 4.1z"/><path class="b" d="m16.2 35.8h0.2l-1.5-5.7h16.5c1.9 0 3.6 0.7 5 2 1.4 1.3 2.3 3.1 2.5 5 0.2 1.9-0.2 3.8-1.3 5.4-1.1 1.6-2.6 2.7-4.4 3.2l-0.5 0.1c1.7 1.8 3 4.2 3.1 7.4q0 0.6-0.2 1.1-0.2 0.5-0.5 1-0.4 0.4-0.9 0.6-0.5 0.3-1 0.3-0.6 0-1.1-0.2-0.5-0.2-0.9-0.6-0.4-0.4-0.6-0.9-0.3-0.5-0.3-1.1c0-1.9-1-3.4-2.3-4.4-1.5-1.1-2.9-1.3-3.3-1.2-0.7 0.1-1.4-0.1-2-0.5-0.6-0.4-1-1-1.1-1.8-0.2-0.7 0-1.5 0.3-2.1 0.4-0.6 1-1 1.7-1.2l8.3-2.1q0.7-0.2 1.2-0.9c0.3-0.4 0.4-0.9 0.4-1.5-0.1-0.5-0.3-1-0.7-1.3-0.4-0.4-0.9-0.6-1.4-0.6z"/></svg>